<svg viewBox="0 0 684 145" fill="none" xmlns="http://www.w3.org/2000/svg">
  <path d="M104.053 87.706C102.393 69.6457 83.4545 65.5455 59.4391 61.9334C56.1199 61.4453 53.777 58.5166 53.777 55.295C53.8746 51.7806 56.6081 48.9495 60.1225 48.7543C76.1327 48.0709 107.47 48.559 107.763 30.6939C107.958 18.7839 91.5572 5.5071 65.2965 5.01898C36.7905 4.33562 6.72252 22.1031 5.06292 57.9309C3.59857 91.9038 27.8092 117.969 65.687 118.653C94.2907 119.141 105.127 100.104 104.053 87.706Z" stroke-width="6" stroke-miterlimit="10" stroke-linejoin="round" stroke="#ffffff"></path>
  <path d="M29.2739 56.4666C30.9335 74.527 49.8724 78.6271 73.8878 82.2392C77.207 82.7273 79.5499 85.656 79.5499 88.8776C79.4523 92.392 76.7189 95.2231 73.2044 95.4184C57.1942 96.1017 25.8571 95.6136 25.5642 113.479C25.369 125.389 41.7697 138.666 68.0304 139.154C96.5364 139.642 126.604 121.874 128.166 86.0465C129.631 52.1712 105.42 26.1058 67.5423 25.4224C39.0362 25.0319 28.1024 44.0685 29.2739 56.4666Z" stroke-width="6" stroke-miterlimit="10" stroke-linejoin="round" stroke="#ffffff"></path>
  <g fill="#ffffff">
    <path d="M153.229 96.8001L169.529 85.3001C174.229 94.8001 182.329 101.2 194.629 101.2C203.529 101.2 210.529 97.9001 210.529 90.6001C210.529 83.7001 206.429 81.1001 197.029 79.1001L184.629 76.5001C168.429 73.0001 159.029 64.2001 159.029 48.7001C159.029 31.7001 173.029 21.1001 195.229 21.1001C211.829 21.1001 225.529 27.1001 232.229 39.5001L217.829 51.7001C213.229 42.7001 204.529 37.5001 193.929 37.5001C185.129 37.5001 179.529 41.2001 179.529 47.0001C179.529 53.0001 183.229 56.0001 193.029 58.2001L206.529 61.1001C223.029 64.8001 232.029 72.6001 232.029 88.6001C232.029 106.2 218.329 118.4 194.029 118.4C173.829 118.3 159.529 109.8 153.229 96.8001Z"></path>
    <path d="M234.729 98.3C234.729 92.2 236.929 87.3001 241.429 84.2001C245.729 81.2001 252.028 79.1 261.928 77.8L277.729 75.6001V73.4C277.729 65.9 274.629 62.7001 268.029 62.7001C261.629 62.7001 257.929 66.1 257.529 72.4H236.729C237.729 57.9 249.529 49.3 268.129 49.3C289.129 49.3 298.629 57.5 298.629 76.4V98.1001C298.629 105.8 299.328 112.2 300.428 116.3H280.029C279.329 113.2 279.129 109.6 279.029 106C275.729 113.3 267.429 117.9 257.229 117.9C243.729 117.7 234.729 110 234.729 98.3ZM265.029 104.3C273.029 104.3 278.329 98.9001 278.329 91.1001V85.9L267.129 87.7001C259.429 89.1001 255.929 91.9001 255.929 96.7001C255.929 101.3 259.529 104.3 265.029 104.3Z"></path>
    <path d="M297.229 50.7H318.829L329.428 89.2999C330.328 92.2999 331.028 95.6 331.428 98.6H331.729C332.129 95.6 332.729 92.2999 333.729 89.2999L344.129 50.7H365.729L343.029 116.1H320.029L297.229 50.7Z"></path>
    <path d="M363.129 50.7002H384.629L395.229 89.3002C396.129 92.3002 396.829 95.6002 397.229 98.6002H397.529C397.929 95.6002 398.529 92.3002 399.529 89.3002L410.029 50.7002H431.629L408.929 116.1H385.929L363.129 50.7002Z"></path>
    <path d="M433.029 141.5V126.2C436.129 126.7 437.729 126.9 439.329 126.9C446.929 126.9 450.929 124.4 452.829 118.5L453.729 115.8L428.729 50.7999H451.629L463.029 90.5C463.829 93.2 464.328 95.3 464.428 98.1H464.829C465.129 95.9 465.528 93.8 466.428 90.5L476.928 50.7H497.928L474.629 118.9C468.729 135.8 458.829 142.2 441.529 142.2C439.529 142.3 436.329 142 433.029 141.5Z"></path>
    <path d="M500.129 69.8C500.129 40.5 517.429 21 545.629 21C569.329 21 584.229 34.1 586.629 54.3L564.229 58.2C562.929 45.9 556.129 38.7 545.029 38.7C530.929 38.7 522.629 50.6 522.629 69.5C522.629 87.9 531.029 100.2 545.629 100.2C555.929 100.2 562.929 93.1 564.729 81.1L587.129 85.9C582.729 105.5 568.329 118.1 545.329 118.1C515.929 118.3 500.129 99.1 500.129 69.8Z"></path>
    <path d="M589.229 98.3C589.229 92.2 591.429 87.3001 595.929 84.2001C600.229 81.2001 606.529 79.1 616.429 77.8L632.229 75.6001V73.4C632.229 65.9 629.129 62.7001 622.529 62.7001C616.129 62.7001 612.429 66.1 612.029 72.4H591.229C592.229 57.9 604.029 49.3 622.629 49.3C643.629 49.3 653.129 57.5 653.129 76.4V98.1001C653.129 105.8 653.829 112.2 654.929 116.3H634.629C633.929 113.2 633.729 109.6 633.629 106C630.329 113.3 622.029 117.9 611.829 117.9C598.229 117.7 589.229 110 589.229 98.3ZM619.629 104.3C627.629 104.3 632.929 98.9001 632.929 91.1001V85.9L621.629 87.7001C613.929 89.1001 610.429 91.9001 610.429 96.7001C610.429 101.3 614.129 104.3 619.629 104.3Z"></path>
    <path d="M682.229 116.1H661.229V21.3H682.229V116.1Z"></path>
  </g>
</svg>